<svg width="6" height="6" viewBox="0 0 6 6" fill="none" xmlns="http://www.w3.org/2000/svg">
<path d="M5.61297 5.40264H5.76297C5.76297 5.30691 5.72561 5.21497 5.6567 5.14685C5.65655 5.14669 5.65639 5.14653 5.65623 5.14638L3.51178 2.99906L5.65709 0.851657L5.6573 0.851445C5.725 0.783401 5.76299 0.691295 5.76292 0.595301C5.76286 0.499308 5.72475 0.407253 5.65696 0.339297L5.65657 0.338909C5.51845 0.201488 5.28368 0.201084 5.14477 0.339312L5.14443 0.339642L2.99996 2.48678L0.854695 0.339037L0.854697 0.339035L0.853964 0.338311C0.715325 0.201405 0.480972 0.202146 0.343104 0.338976L0.343103 0.338975L0.342914 0.339164C0.309044 0.372899 0.282232 0.413042 0.264042 0.45725C0.245917 0.501303 0.236715 0.548513 0.236968 0.596145M5.61297 5.40264L5.76297 5.40222C5.7631 5.44987 5.75381 5.49709 5.73564 5.54115C5.71746 5.5852 5.69076 5.62523 5.65706 5.65893L5.55099 5.55287L5.65706 5.65893C5.62336 5.69263 5.58333 5.71934 5.53927 5.73751L5.48207 5.59885L5.53927 5.73751C5.49528 5.75566 5.44814 5.76495 5.40055 5.76484M5.61297 5.40264C5.61305 5.43053 5.60761 5.45816 5.59698 5.48394L5.55097 5.25324C5.59097 5.29264 5.61297 5.34604 5.61297 5.40264ZM5.40055 5.76484C5.3046 5.76479 5.21344 5.72711 5.14557 5.65958L5.14524 5.65925L2.99997 3.5115L0.856538 5.65759C0.85634 5.6578 0.856141 5.658 0.855941 5.6582C0.788341 5.72689 0.694778 5.76331 0.600898 5.76364L0.600368 5.76364L0.599168 5.76364C0.504868 5.76364 0.411865 5.72717 0.344056 5.66006L0.343592 5.6596C0.275598 5.59172 0.237304 5.49964 0.237112 5.40357C0.23692 5.30749 0.274846 5.21526 0.34257 5.14711L0.342831 5.14685L2.48797 2.99885L0.343239 0.851643C0.343125 0.85153 0.343012 0.851418 0.342899 0.851306C0.274511 0.783426 0.237098 0.69199 0.236968 0.596145M5.40055 5.76484C5.40048 5.76484 5.40041 5.76484 5.40034 5.76484L5.40077 5.61484V5.76484C5.4007 5.76484 5.40063 5.76484 5.40055 5.76484ZM0.236968 0.596145C0.236968 0.595977 0.236968 0.59581 0.236968 0.595642H0.386968L0.236971 0.59665C0.23697 0.596482 0.236969 0.596313 0.236968 0.596145Z" fill="white" stroke="white" stroke-width="0.3"/>
</svg>
