<svg width="8" height="6" viewBox="0 0 8 6" fill="none" xmlns="http://www.w3.org/2000/svg">
<path d="M2.94293 5.25929L3.04903 5.36528L3.15504 5.25921L7.37282 1.03921L7.37314 1.03953L7.38066 1.03074C7.44164 0.959536 7.4735 0.867942 7.46988 0.774262C7.46627 0.680582 7.42743 0.591718 7.36114 0.525428C7.29485 0.459137 7.20598 0.420302 7.11231 0.416684C7.01863 0.413065 6.92703 0.44493 6.85582 0.50591L6.85554 0.505574L6.84739 0.513715L3.04456 4.31221L1.15057 2.41822L1.15089 2.4179L1.14207 2.41035C1.07086 2.34937 0.97927 2.31751 0.88559 2.32113C0.791911 2.32475 0.703047 2.36358 0.636756 2.42987C0.570465 2.49616 0.53163 2.58503 0.528012 2.67871C0.524393 2.77239 0.556258 2.86398 0.617238 2.93519L0.616893 2.93548L0.625154 2.94374L2.94293 5.25929Z" fill="white" stroke="white" stroke-width="0.3"/>
</svg>
