<svg width="12" height="12" viewBox="0 0 12 12" fill="none" xmlns="http://www.w3.org/2000/svg">
<path d="M8.5 7.5C8.15 7.5 7.85417 7.37917 7.6125 7.1375C7.37083 6.89583 7.25 6.6 7.25 6.25C7.25 5.9 7.37083 5.60417 7.6125 5.3625C7.85417 5.12083 8.15 5 8.5 5C8.85 5 9.14583 5.12083 9.3875 5.3625C9.62917 5.60417 9.75 5.9 9.75 6.25C9.75 6.6 9.62917 6.89583 9.3875 7.1375C9.14583 7.37917 8.85 7.5 8.5 7.5ZM6 10V9.3C6 9.1 6.052 8.91467 6.156 8.744C6.26033 8.573 6.40833 8.45 6.6 8.375C6.9 8.25 7.2105 8.15633 7.5315 8.094C7.85217 8.03133 8.175 8 8.5 8C8.825 8 9.148 8.03133 9.469 8.094C9.78967 8.15633 10.1 8.25 10.4 8.375C10.5917 8.45 10.7397 8.573 10.844 8.744C10.948 8.91467 11 9.1 11 9.3V10H6ZM5 6C4.45 6 3.97917 5.80417 3.5875 5.4125C3.19583 5.02083 3 4.55 3 4C3 3.45 3.19583 2.97917 3.5875 2.5875C3.97917 2.19583 4.45 2 5 2C5.55 2 6.02083 2.19583 6.4125 2.5875C6.80417 2.97917 7 3.45 7 4C7 4.55 6.80417 5.02083 6.4125 5.4125C6.02083 5.80417 5.55 6 5 6ZM1 10V8.6C1 8.31667 1.07083 8.05617 1.2125 7.8185C1.35417 7.58117 1.55 7.4 1.8 7.275C2.3 7.025 2.81883 6.83333 3.3565 6.7C3.89383 6.56667 4.44167 6.5 5 6.5C5.29167 6.5 5.58333 6.525 5.875 6.575C6.16667 6.625 6.45833 6.68333 6.75 6.75L5.9 7.6C5.75 7.55833 5.6 7.53117 5.45 7.5185C5.3 7.50617 5.15 7.5 5 7.5C4.51667 7.5 4.04383 7.55833 3.5815 7.675C3.11883 7.79167 2.675 7.95833 2.25 8.175C2.16667 8.21667 2.10417 8.275 2.0625 8.35C2.02083 8.425 2 8.50833 2 8.6V9H5V10H1ZM5 5C5.275 5 5.5105 4.902 5.7065 4.706C5.90217 4.51033 6 4.275 6 4C6 3.725 5.90217 3.48967 5.7065 3.294C5.5105 3.098 5.275 3 5 3C4.725 3 4.48967 3.098 4.294 3.294C4.098 3.48967 4 3.725 4 4C4 4.275 4.098 4.51033 4.294 4.706C4.48967 4.902 4.725 5 5 5Z" fill="#4C7063"/>
</svg>
