<svg width="21" height="20" viewBox="0 0 21 20" fill="none" xmlns="http://www.w3.org/2000/svg">
    <g clip-path="url(#clip0_73_868)">
        <path
            d="M15.7681 20C15.4466 20 15.1388 19.9233 14.8483 19.7732L10.5379 17.5258C10.5259 17.519 10.5121 17.5156 10.4984 17.5156C10.4846 17.5156 10.4708 17.519 10.4588 17.5258L6.14843 19.7732C5.86302 19.9216 5.54494 20 5.22858 20C4.64572 20 4.09382 19.7442 3.71556 19.2975C3.34247 18.8575 3.18429 18.2778 3.28229 17.7082L4.10585 12.9491C4.11101 12.9218 4.10069 12.8945 4.08178 12.8741L0.598401 9.50294C0.0568096 8.97945 -0.135756 8.21042 0.0980738 7.49595C0.331904 6.78148 0.942269 6.27163 1.6919 6.1625L6.51121 5.4685C6.53872 5.46509 6.56279 5.44803 6.57482 5.42246L8.72915 1.09131C9.06442 0.417768 9.74184 0 10.5001 0C11.2583 0 11.9357 0.417768 12.271 1.09131L14.4253 5.42246C14.4374 5.44803 14.4614 5.46509 14.4889 5.4685L19.3082 6.1625C20.0579 6.26993 20.6682 6.78148 20.9021 7.49595C21.1359 8.21042 20.9451 8.97945 20.4017 9.50294L16.9149 12.8741C16.8943 12.8928 16.8857 12.9218 16.8909 12.9491L17.7144 17.7082C17.8124 18.2795 17.656 18.8592 17.2811 19.2975C16.9029 19.7442 16.351 20 15.7681 20Z"
            fill="#F1B114" />
        <path
            d="M15.7681 19.3248C15.5583 19.3248 15.3554 19.2736 15.1663 19.1747L10.8559 16.9273C10.7459 16.871 10.6238 16.8404 10.5 16.8404C10.3762 16.8404 10.2542 16.871 10.1441 16.9273L5.83375 19.1747C5.6429 19.2736 5.44002 19.3248 5.23198 19.3248C4.85029 19.3248 4.48751 19.156 4.2382 18.8627C3.99062 18.5711 3.89089 18.2011 3.95623 17.8225L4.77979 13.0634C4.82278 12.8178 4.74025 12.5655 4.55972 12.3916L1.0729 9.02042C0.716996 8.67598 0.591484 8.17295 0.744505 7.70403C0.897527 7.2351 1.29813 6.90089 1.78986 6.83098L6.60917 6.13697C6.85847 6.10116 7.07339 5.94599 7.18515 5.72261L9.33948 1.39147C9.55955 0.949826 10.0031 0.675293 10.5 0.675293C10.9969 0.675293 11.4405 0.949826 11.6606 1.39147L13.8149 5.72261C13.9267 5.94599 14.1416 6.10116 14.3909 6.13697L19.2102 6.83098C19.7019 6.90259 20.1025 7.23681 20.2556 7.70403C20.4086 8.17295 20.2831 8.67598 19.9272 9.02042L16.4403 12.3916C16.2598 12.5655 16.1773 12.8178 16.2203 13.0634L17.0438 17.8225C17.1092 18.2028 17.0094 18.5728 16.7619 18.8627C16.5126 19.156 16.1498 19.3248 15.7681 19.3248Z"
            fill="#F0841D" />
        <path
            d="M11.4234 1.50587L13.5777 5.83701C13.7273 6.13883 14.0178 6.34686 14.3531 6.39631L19.1724 7.09032C20.0166 7.21138 20.3536 8.24131 19.7432 8.833L16.2564 12.2041C16.014 12.4395 15.9022 12.7771 15.9607 13.1079L16.7843 17.867C16.9287 18.7009 16.0449 19.3369 15.2902 18.943L10.9798 16.6956C10.6806 16.5387 10.3213 16.5387 10.0221 16.6956L5.71172 18.943C4.95693 19.3369 4.07319 18.7009 4.21762 17.867L5.04118 13.1079C5.09792 12.7771 4.98788 12.4377 4.74545 12.2041L1.25692 8.8313C0.64655 8.24131 0.983541 7.21138 1.82774 7.08861L6.64704 6.3946C6.98231 6.34686 7.27288 6.13712 7.42246 5.83531L9.57679 1.50416C9.95505 0.745358 11.0451 0.745358 11.4234 1.50416V1.50587Z"
            fill="#F9CE1B" />
        <path
            d="M15.7836 6.60094C15.6323 11.0941 11.9099 14.6886 7.34509 14.6886C6.46995 14.6886 5.62747 14.5556 4.83314 14.3117L5.04118 13.1062C5.09792 12.7737 4.98788 12.4378 4.74545 12.2024L1.25692 8.83301C0.64655 8.24132 0.983541 7.21139 1.82774 7.09032L6.64704 6.39632C6.98231 6.34857 7.27288 6.14054 7.42074 5.83872L9.57679 1.50758C9.95333 0.748776 11.0451 0.748776 11.4234 1.50758L13.5777 5.83872C13.729 6.14054 14.0178 6.34857 14.3531 6.39632L15.7819 6.60264L15.7836 6.60094Z"
            fill="#FADB1B" />
        <path
            d="M15.6562 6.58389C14.2412 8.31805 12.0765 9.42641 9.65225 9.42641C7.22798 9.42641 5.24558 8.41013 3.83057 6.80215L6.64684 6.39632C6.98211 6.34857 7.27268 6.14054 7.42054 5.83872L9.5766 1.50758C9.95313 0.748776 11.0449 0.748776 11.4232 1.50758L13.5775 5.83872C13.7288 6.14054 14.0176 6.34857 14.3529 6.39632L15.6562 6.58389Z"
            fill="#F5E849" />
    </g>
    <defs>
        <clipPath id="clip0_73_868">
            <rect width="21" height="20" fill="white" />
        </clipPath>
    </defs>
</svg>
