<svg width="23" height="23" viewBox="0 0 23 23" fill="none" xmlns="http://www.w3.org/2000/svg">
<path d="M18.3425 12.4006C18.3809 12.1131 18.4 11.8161 18.4 11.4998C18.4 11.1931 18.3809 10.8865 18.3329 10.599L20.2784 9.08481C20.3622 9.01571 20.4195 8.91968 20.4404 8.81309C20.4614 8.70649 20.4448 8.59593 20.3934 8.50022L18.5534 5.31856C18.4992 5.22231 18.4127 5.14833 18.3092 5.10975C18.2057 5.07116 18.0919 5.07044 17.9879 5.10772L15.6975 6.02772C15.2184 5.66356 14.7104 5.35689 14.145 5.12689L13.8 2.69272C13.7831 2.58302 13.7273 2.48305 13.6429 2.41095C13.5585 2.33885 13.451 2.29942 13.34 2.29981H9.66003C9.43003 2.29981 9.24794 2.46272 9.20961 2.69272L8.86461 5.12689C8.29919 5.35689 7.78169 5.67314 7.31211 6.02772L5.02169 5.10772C4.81086 5.03106 4.57128 5.10772 4.45628 5.31856L2.62586 8.50022C2.51086 8.70147 2.54919 8.95064 2.74086 9.08481L4.68628 10.599C4.63836 10.8865 4.60003 11.2027 4.60003 11.4998C4.60003 11.7969 4.61919 12.1131 4.66711 12.4006L2.72169 13.9148C2.63786 13.9839 2.58058 14.0799 2.55961 14.1865C2.53864 14.2931 2.55528 14.4037 2.60669 14.4994L4.44669 17.6811C4.56169 17.8919 4.80128 17.959 5.01211 17.8919L7.30253 16.9719C7.78169 17.3361 8.28961 17.6427 8.85503 17.8727L9.20003 20.3069C9.24794 20.5369 9.43003 20.6998 9.66003 20.6998H13.34C13.57 20.6998 13.7617 20.5369 13.7904 20.3069L14.1354 17.8727C14.7009 17.6427 15.2184 17.3361 15.6879 16.9719L17.9784 17.8919C18.1892 17.9686 18.4288 17.8919 18.5438 17.6811L20.3838 14.4994C20.4988 14.2886 20.4509 14.049 20.2688 13.9148L18.3425 12.4006ZM11.5 14.9498C9.60253 14.9498 8.05003 13.3973 8.05003 11.4998C8.05003 9.60231 9.60253 8.04981 11.5 8.04981C13.3975 8.04981 14.95 9.60231 14.95 11.4998C14.95 13.3973 13.3975 14.9498 11.5 14.9498Z" fill="white"/>
</svg>
