<svg width="56" height="56" viewBox="0 0 56 56" fill="none" xmlns="http://www.w3.org/2000/svg">
<g filter="url(#filter0_d_156_1341)">
<path d="M12 26C12 17.1634 19.1634 10 28 10C36.8366 10 44 17.1634 44 26C44 34.8366 36.8366 42 28 42C19.1634 42 12 34.8366 12 26Z" fill="#9A846A"/>
</g>
<path fill-rule="evenodd" clip-rule="evenodd" d="M29.3651 18.531C29.0367 18.4325 28.6897 18.4121 28.352 18.4715C28.0142 18.5309 27.695 18.6684 27.4199 18.8731C27.1447 19.0778 26.9213 19.3439 26.7673 19.6504C26.6133 19.9568 26.5331 20.2949 26.533 20.6379V31.3621C26.5331 31.7051 26.6133 32.0432 26.7673 32.3496C26.9213 32.6561 27.1447 32.9222 27.4199 33.1269C27.695 33.3316 28.0142 33.4691 28.352 33.5285C28.6897 33.5879 29.0367 33.5675 29.3651 33.469L33.7651 32.149C34.2183 32.0131 34.6155 31.7347 34.8979 31.3552C35.1804 30.9757 35.3329 30.5152 35.333 30.0421V21.9579C35.3329 21.4848 35.1804 21.0243 34.8979 20.6448C34.6155 20.2653 34.2183 19.9869 33.7651 19.851L29.3651 18.531ZM25.7997 20.1333C25.7997 19.9388 25.7224 19.7523 25.5849 19.6148C25.4474 19.4773 25.2608 19.4 25.0663 19.4H22.8663C22.2829 19.4 21.7233 19.6318 21.3107 20.0444C20.8981 20.457 20.6663 21.0165 20.6663 21.6V22.3333C20.6663 22.5278 20.7436 22.7144 20.8811 22.8519C21.0187 22.9894 21.2052 23.0667 21.3997 23.0667C21.5942 23.0667 21.7807 22.9894 21.9182 22.8519C22.0557 22.7144 22.133 22.5278 22.133 22.3333V21.6C22.133 21.4055 22.2103 21.219 22.3478 21.0815C22.4853 20.9439 22.6719 20.8667 22.8663 20.8667H25.0663C25.2608 20.8667 25.4474 20.7894 25.5849 20.6519C25.7224 20.5144 25.7997 20.3278 25.7997 20.1333ZM21.3997 28.9333C21.2052 28.9333 21.0187 29.0106 20.8811 29.1481C20.7436 29.2857 20.6663 29.4722 20.6663 29.6667V30.4C20.6663 30.9835 20.8981 31.5431 21.3107 31.9556C21.7233 32.3682 22.2829 32.6 22.8663 32.6H25.0663C25.2608 32.6 25.4474 32.5227 25.5849 32.3852C25.7224 32.2477 25.7997 32.0612 25.7997 31.8667C25.7997 31.6722 25.7224 31.4857 25.5849 31.3481C25.4474 31.2106 25.2608 31.1333 25.0663 31.1333H22.8663C22.6719 31.1333 22.4853 31.0561 22.3478 30.9186C22.2103 30.781 22.133 30.5945 22.133 30.4V29.6667C22.133 29.4722 22.0557 29.2857 21.9182 29.1481C21.7807 29.0106 21.5942 28.9333 21.3997 28.9333ZM30.1997 25.2667C30.3942 25.2667 30.5807 25.3439 30.7182 25.4815C30.8557 25.619 30.933 25.8055 30.933 26C30.933 26.1945 30.8557 26.381 30.7182 26.5185C30.5807 26.6561 30.3942 26.7333 30.1997 26.7333H30.1989C30.0044 26.7333 29.8179 26.6561 29.6804 26.5185C29.5429 26.381 29.4656 26.1945 29.4656 26C29.4656 25.8055 29.5429 25.619 29.6804 25.4815C29.8179 25.3439 30.0044 25.2667 30.1989 25.2667H30.1997Z" fill="white"/>
<path d="M25.0664 26H21.3997M21.3997 26L22.8664 24.5333M21.3997 26L22.8664 27.4667" stroke="white" stroke-width="2" stroke-linecap="round" stroke-linejoin="round"/>
<defs>
<filter id="filter0_d_156_1341" x="0" y="0" width="56" height="56" filterUnits="userSpaceOnUse" color-interpolation-filters="sRGB">
<feFlood flood-opacity="0" result="BackgroundImageFix"/>
<feColorMatrix in="SourceAlpha" type="matrix" values="0 0 0 0 0 0 0 0 0 0 0 0 0 0 0 0 0 0 127 0" result="hardAlpha"/>
<feOffset dy="2"/>
<feGaussianBlur stdDeviation="6"/>
<feComposite in2="hardAlpha" operator="out"/>
<feColorMatrix type="matrix" values="0 0 0 0 0 0 0 0 0 0 0 0 0 0 0 0 0 0 0.2 0"/>
<feBlend mode="normal" in2="BackgroundImageFix" result="effect1_dropShadow_156_1341"/>
<feBlend mode="normal" in="SourceGraphic" in2="effect1_dropShadow_156_1341" result="shape"/>
</filter>
</defs>
</svg>
